# xmcd
#
# Track frame offsets:
#	150
#	14628
#	38418
#	59859
#	73158
#	97404
#	122556
#	157507
#	177134
#	197501
#	221095
#	236272
#
# Disc length: 3494 seconds
#
# Revision: 1
# Processed by: cddbd v1.4PL0 Copyright (c) Steve Scherf et al.
# Submitted via: EasyCDDAExtractor 5.1.0
#
DISCID=a40da40c
DTITLE=Charlie Robison, Jack Ingram, and Bruce Robinson - Unleashed Live
DYEAR=1900
DGENRE=Country
TTITLE0=The Good Life
TTITLE1=Rayne, Louisiana
TTITLE2=Angry All The Time
TTITLE3=Red Letter Day
TTITLE4=My Hometown
TTITLE5=Sunset Boulevard
TTITLE6=Loving County
TTITLE7=Barlight
TTITLE8=Mustang Barn
TTITLE9=Work This Out
TTITLE10=Travis County
TTITLE11=Barbie Doll
EXTD=
EXTT0=
EXTT1=
EXTT2=
EXTT3=
EXTT4=
EXTT5=
EXTT6=
EXTT7=
EXTT8=
EXTT9=
EXTT10=
EXTT11=
PLAYORDER=
